<svg width="41" height="85" viewBox="0 0 41 85" fill="none" xmlns="http://www.w3.org/2000/svg">
<path d="M10.44 11.4C10.12 16.56 9.44 20.96 8.36 24.56C7.28 23.52 6.16 22.48 5.08 21.56C5.64 18.44 6.24 14.92 6.84 11.4H10.44ZM13.08 30.24C12.48 29.2 11.52 27.96 10.4 26.72C11.92 22.16 12.8 16.32 13.12 8.92L11.48 8.68L11.04 8.76H7.28C7.72 5.96 8.12 3.2 8.48 0.759999L5.8 0.52C5.52 3 5.16 5.84 4.72 8.76H1.76V11.4H4.32C3.56 16.4 2.68 21.36 1.92 24.76L4.2 26L4.52 24.44C5.48 25.36 6.48 26.36 7.4 27.36C6 30.8 4.16 33.32 1.84 34.92C2.48 35.44 3.24 36.44 3.56 37.12C5.92 35.32 7.84 32.84 9.28 29.6C10.08 30.6 10.76 31.56 11.24 32.4L13.08 30.24ZM19.2 21.44C19.36 19.72 19.4 18.12 19.4 16.6V14.52H22.72C22.72 17.16 22.72 19.44 22.68 21.44H19.2ZM19.4 5.2H22.76V11.92H19.4V5.2ZM13.36 2.56V5.2H17V11.92H13.96V14.52H17V16.56C17 18.08 16.96 19.76 16.84 21.44H13.52V24.04H16.52C15.88 28 14.48 32 11.44 35.2C11.92 35.56 12.84 36.6 13.12 37.12C16.6 33.48 18.2 28.68 18.92 24.04H22.64C22.56 30.24 22.4 32.88 22 33.6C21.68 34.28 21.36 34.4 20.88 34.4C20.2 34.4 18.96 34.4 17.44 34.28C17.88 35 18.12 36.24 18.2 37.04C19.64 37.08 20.96 37.08 22 36.96C23 36.8 23.64 36.52 24.28 35.44C25.24 33.72 25.2 26.56 25.2 4.04C25.24 3.68 25.24 2.56 25.24 2.56H13.36ZM36.24 2.36L35.84 2.44H27.48V37H30.04V4.84H34.96C34.12 8 32.88 12.52 31.68 16.04C34.52 19.64 35.12 22.72 35.12 25.2C35.12 26.64 34.96 27.92 34.4 28.44C34.04 28.68 33.64 28.8 33.16 28.84C32.64 28.84 31.92 28.84 31.12 28.8C31.56 29.52 31.76 30.64 31.8 31.36C32.6 31.4 33.48 31.36 34.2 31.28C34.92 31.2 35.64 30.96 36.16 30.56C37.24 29.72 37.64 27.88 37.64 25.52C37.64 22.72 37 19.48 34.16 15.76C35.48 12.12 36.92 7.24 38.08 3.44L36.24 2.36Z" fill="#FF1F57"/>
<path d="M10.8122 53.8349C10.4922 58.9949 9.81219 63.3949 8.73219 66.9949C7.65219 65.9549 6.53219 64.9149 5.45219 63.9949C6.01219 60.8749 6.61219 57.3549 7.21219 53.8349H10.8122ZM13.4522 72.6749C12.8522 71.6349 11.8922 70.3949 10.7722 69.1549C12.2922 64.5949 13.1722 58.7549 13.4922 51.3549L11.8522 51.1149L11.4122 51.1949H7.65219C8.09219 48.3949 8.49219 45.6349 8.85219 43.1949L6.17219 42.9549C5.89219 45.4349 5.53219 48.2749 5.09219 51.1949H2.13219V53.8349H4.69219C3.93219 58.8349 3.05219 63.7949 2.29219 67.1949L4.57219 68.4349L4.89219 66.8749C5.85219 67.7949 6.85219 68.7949 7.77219 69.7949C6.37219 73.2349 4.53219 75.7549 2.21219 77.3549C2.85219 77.8749 3.61219 78.8749 3.93219 79.5549C6.29219 77.7549 8.21219 75.2749 9.65219 72.0349C10.4522 73.0349 11.1322 73.9949 11.6122 74.8349L13.4522 72.6749ZM19.5722 63.8749C19.7322 62.1549 19.7722 60.5549 19.7722 59.0349V56.9549H23.0922C23.0922 59.5949 23.0922 61.8749 23.0522 63.8749H19.5722ZM19.7722 47.6349H23.1322V54.3549H19.7722V47.6349ZM13.7322 44.9949V47.6349H17.3722V54.3549H14.3322V56.9549H17.3722V58.9949C17.3722 60.5149 17.3322 62.1949 17.2122 63.8749H13.8922V66.4749H16.8922C16.2522 70.4349 14.8522 74.4349 11.8122 77.6349C12.2922 77.9949 13.2122 79.0349 13.4922 79.5549C16.9722 75.9149 18.5722 71.1149 19.2922 66.4749H23.0122C22.9322 72.6749 22.7722 75.3149 22.3722 76.0349C22.0522 76.7149 21.7322 76.8349 21.2522 76.8349C20.5722 76.8349 19.3322 76.8349 17.8122 76.7149C18.2522 77.4349 18.4922 78.6749 18.5722 79.4749C20.0122 79.5149 21.3322 79.5149 22.3722 79.3949C23.3722 79.2349 24.0122 78.9549 24.6522 77.8749C25.6122 76.1549 25.5722 68.9949 25.5722 46.4749C25.6122 46.1149 25.6122 44.9949 25.6122 44.9949H13.7322ZM36.6122 44.7949L36.2122 44.8749H27.8522V79.4349H30.4122V47.2749H35.3322C34.4922 50.4349 33.2522 54.9549 32.0522 58.4749C34.8922 62.0749 35.4922 65.1549 35.4922 67.6349C35.4922 69.0749 35.3322 70.3549 34.7722 70.8749C34.4122 71.1149 34.0122 71.2349 33.5322 71.2749C33.0122 71.2749 32.2922 71.2749 31.4922 71.2349C31.9322 71.9549 32.1322 73.0749 32.1722 73.7949C32.9722 73.8349 33.8522 73.7949 34.5722 73.7149C35.2922 73.6349 36.0122 73.3949 36.5322 72.9949C37.6122 72.1549 38.0122 70.3149 38.0122 67.9549C38.0122 65.1549 37.3722 61.9149 34.5322 58.1949C35.8522 54.5549 37.2922 49.6749 38.4522 45.8749L36.6122 44.7949Z" fill="#FF1F57"/>
</svg>
