<svg width="25" height="25" viewBox="0 0 25 25" fill="none" xmlns="http://www.w3.org/2000/svg">
<path d="M21.8333 20.8334C20.8333 21.3334 19.5 21 18.8333 20L17 17.6667H8L6.16667 20C5.33333 21.1667 3.83333 21.3334 2.66667 20.5C1.83333 19.8334 1.5 18.8334 1.66667 18L2.83333 11.8334C3.16667 9.83337 5 8.33337 7 8.33337H11.6667V5.83337C11.6667 4.50004 12.6667 3.33337 14 3.33337H19.1667C19.6667 3.33337 20 3.66671 20 4.16671C20 4.66671 19.6667 5.00004 19.1667 5.00004H14.1667C13.6667 5.00004 13.3333 5.33337 13.3333 5.66671V8.33337H18C20 8.33337 21.8333 9.83337 22.1667 11.8334L23.3333 18C23.5 19.1667 23 20.3334 21.8333 20.8334ZM10 12.5C10 11.1667 8.83333 10 7.5 10C6.16667 10 5 11.1667 5 12.5C5 13.8334 6.16667 15 7.5 15C8.83333 15 10 13.8334 10 12.5ZM20 12.5C20 12 19.6667 11.6667 19.1667 11.6667H18.3333V10.8334C18.3333 10.3334 18 10 17.5 10C17 10 16.6667 10.3334 16.6667 10.8334V11.6667H15.8333C15.3333 11.6667 15 12 15 12.5C15 13 15.3333 13.3334 15.8333 13.3334H16.6667V14.1667C16.6667 14.6667 17 15 17.5 15C18 15 18.3333 14.6667 18.3333 14.1667V13.3334H19.1667C19.6667 13.3334 20 13 20 12.5Z" fill="#FF1F57"/>
</svg>
