<svg width="23" height="23" viewBox="0 0 23 23" fill="none" xmlns="http://www.w3.org/2000/svg">
<path d="M23 0.00288263C23 0.00288263 14.214 -0.422564 7.291 9.06375C1.978 16.3423 0 23 0 23L2.231 21.8501C3.887 18.9755 4.7495 17.7912 6.371 16.1009C9.2805 16.9518 12.3165 16.8483 14.95 13.8012C12.65 13.1572 10.81 13.3067 8.096 13.5827C11.1435 11.5014 13.225 11.0415 16.1 11.5014L17.25 9.20173C15.18 8.81078 13.8 8.77628 11.753 9.24772C14.0185 7.64942 15.594 6.75254 18.4 6.90202L19.7915 4.6828C17.9975 4.55631 16.9165 4.75179 14.858 5.25772C16.7095 3.57893 18.4 2.82003 20.861 2.67055C20.861 2.67055 22.0685 0.497321 23 0.00288263Z" fill="#FF1F57"/>
</svg>
