<svg width="20" height="20" viewBox="0 0 20 20" fill="none" xmlns="http://www.w3.org/2000/svg">
<g clip-path="url(#clip0)">
<path d="M19.9969 5.10437C19.9969 4.48937 19.945 3.87687 19.7981 3.27812C19.5344 2.1875 18.9125 1.35437 17.9819 0.7425C17.5031 0.43 16.9763 0.238125 16.4163 0.136875C15.9862 0.0616359 15.5509 0.0202589 15.1144 0.013125C15.0819 0.01 15.0463 0.003125 15.01 0H4.99064C4.86377 0.01 4.73689 0.01625 4.61002 0.0225C3.98814 0.058125 3.37002 0.123125 2.78377 0.3575C1.67064 0.796875 0.866269 1.565 0.397519 2.67187C0.23502 3.04625 0.153145 3.44312 0.0950195 3.84687C0.0462695 4.1725 0.0200195 4.50125 0.0106445 4.83C0.0106445 4.85625 0.00439453 4.88187 0.00439453 4.90812V15.0937L0.0237695 15.4456C0.0662695 16.1262 0.15377 16.8 0.440645 17.425C0.981269 18.6069 1.88939 19.3844 3.13627 19.7587C3.48439 19.8662 3.84939 19.915 4.21377 19.9475C4.67627 19.9931 5.13814 19.9994 5.60065 19.9994H14.7931C15.2294 19.9994 15.6656 19.97 16.1019 19.915C16.7888 19.8269 17.4331 19.625 18.0163 19.2412C18.7065 18.7941 19.2508 18.1547 19.5819 17.4019C19.7381 17.05 19.8263 16.6762 19.8913 16.2981C19.9856 15.735 20.005 15.165 20.005 14.5956C20.0019 11.4312 20.005 8.2675 20.0019 5.10312L19.9969 5.10437ZM14.645 8.4275V13.1869C14.645 13.535 14.5963 13.8769 14.44 14.1925C14.1994 14.6837 13.8088 14.9931 13.2844 15.1431C12.9939 15.2264 12.6945 15.2744 12.3925 15.2862C12.0128 15.3087 11.6381 15.1907 11.3397 14.9548C11.0414 14.7189 10.8401 14.3815 10.7744 14.0069C10.7142 13.6698 10.7662 13.3223 10.9226 13.0176C11.079 12.713 11.331 12.4682 11.64 12.3206C11.9069 12.1906 12.1969 12.1125 12.4863 12.0537C12.8019 11.9856 13.1175 11.9237 13.43 11.8519C13.6613 11.8 13.8106 11.66 13.8563 11.4219C13.8694 11.37 13.8725 11.3144 13.8725 11.2625V6.725C13.8714 6.67322 13.8638 6.62179 13.85 6.57187C13.8175 6.445 13.7263 6.37 13.5963 6.37625C13.4625 6.3825 13.3325 6.40562 13.2025 6.43187C12.5675 6.55562 11.9331 6.6825 11.3013 6.8125L8.21877 7.43437C8.20564 7.4375 8.18939 7.44437 8.17627 7.44437C7.94502 7.50937 7.86377 7.61375 7.85377 7.85437C7.85064 7.89 7.85377 7.92625 7.85377 7.96187C7.85064 10.13 7.85377 12.2981 7.85064 14.4656C7.85064 14.8175 7.81127 15.1625 7.67189 15.4875C7.44064 16.0212 7.03064 16.3569 6.47752 16.5162C6.1851 16.6014 5.88316 16.6494 5.57877 16.6594C4.78127 16.6887 4.11689 16.1581 3.98064 15.3737C3.86314 14.6969 4.17252 13.9675 4.94064 13.6419C5.24002 13.5181 5.54939 13.45 5.86502 13.385L6.58127 13.2387C6.90002 13.1706 7.06627 12.9687 7.08252 12.6431V12.5194V5.11687C7.08252 5.0125 7.09564 4.90875 7.11814 4.8075C7.17689 4.57 7.34627 4.43312 7.57377 4.3775C7.78564 4.32187 8.00377 4.28312 8.21814 4.2375C8.83002 4.11375 9.43877 3.99 10.0506 3.86937L11.9419 3.485C12.5019 3.37437 13.0581 3.26062 13.6181 3.15C13.8006 3.11437 13.9863 3.075 14.1713 3.06187C14.4281 3.03937 14.6075 3.20187 14.6338 3.4625C14.64 3.52437 14.6438 3.58625 14.6438 3.64812V8.42375L14.645 8.4275Z" fill="#FF1F57"/>
</g>
<defs>
<clipPath id="clip0">
<rect width="20" height="20" fill="white"/>
</clipPath>
</defs>
</svg>
